<mxfile host="app.diagrams.net" modified="2022-01-15T15:51:16.100Z" agent="5.0 (Windows NT 10.0; Win64; x64) AppleWebKit/537.36 (KHTML, like Gecko) Chrome/97.0.4692.71 Safari/537.36" etag="a-ZN6F1TPCs6MFCeHOek" version="16.2.7" type="github">
  <diagram id="S7l8wAbUdRp46LBn-i9x" name="Page-1">
    <mxGraphModel dx="1314" dy="1718" grid="1" gridSize="10" guides="1" tooltips="1" connect="1" arrows="1" fold="1" page="1" pageScale="1" pageWidth="850" pageHeight="1100" math="0" shadow="0">
      <root>
        <mxCell id="0" />
        <mxCell id="1" parent="0" />
        <mxCell id="JdBObX5c28iziQ9NhJDq-1" value="1.3" style="swimlane;fontStyle=0;childLayout=stackLayout;horizontal=1;startSize=20;fillColor=#ffffff;horizontalStack=0;resizeParent=1;resizeParentMax=0;resizeLast=0;collapsible=0;marginBottom=0;swimlaneFillColor=#ffffff;" vertex="1" parent="1">
          <mxGeometry x="90" y="310" width="170" height="50" as="geometry" />
        </mxCell>
        <mxCell id="JdBObX5c28iziQ9NhJDq-6" value="Manage Booking Records" style="text;strokeColor=none;fillColor=none;align=center;verticalAlign=middle;spacingLeft=4;spacingRight=4;overflow=hidden;points=[[0,0.5],[1,0.5]];portConstraint=eastwest;rotatable=0;" vertex="1" parent="JdBObX5c28iziQ9NhJDq-1">
          <mxGeometry y="20" width="170" height="30" as="geometry" />
        </mxCell>
        <mxCell id="JdBObX5c28iziQ9NhJDq-2" value="1.1" style="swimlane;fontStyle=0;childLayout=stackLayout;horizontal=1;startSize=20;fillColor=#ffffff;horizontalStack=0;resizeParent=1;resizeParentMax=0;resizeLast=0;collapsible=0;marginBottom=0;swimlaneFillColor=#ffffff;" vertex="1" parent="1">
          <mxGeometry x="90" y="60" width="170" height="60" as="geometry" />
        </mxCell>
        <mxCell id="JdBObX5c28iziQ9NhJDq-5" value="Manage Customer &#xa;Information" style="text;strokeColor=none;fillColor=none;align=center;verticalAlign=middle;spacingLeft=4;spacingRight=4;overflow=hidden;points=[[0,0.5],[1,0.5]];portConstraint=eastwest;rotatable=0;" vertex="1" parent="JdBObX5c28iziQ9NhJDq-2">
          <mxGeometry y="20" width="170" height="40" as="geometry" />
        </mxCell>
        <mxCell id="JdBObX5c28iziQ9NhJDq-58" value="" style="edgeStyle=orthogonalEdgeStyle;rounded=0;orthogonalLoop=1;jettySize=auto;html=1;fontSize=10;startArrow=none;startFill=0;endArrow=classic;endFill=1;" edge="1" parent="1" source="JdBObX5c28iziQ9NhJDq-3" target="JdBObX5c28iziQ9NhJDq-9">
          <mxGeometry relative="1" as="geometry" />
        </mxCell>
        <mxCell id="JdBObX5c28iziQ9NhJDq-3" value="1. 4" style="swimlane;fontStyle=0;childLayout=stackLayout;horizontal=1;startSize=20;fillColor=#ffffff;horizontalStack=0;resizeParent=1;resizeParentMax=0;resizeLast=0;collapsible=0;marginBottom=0;swimlaneFillColor=#ffffff;" vertex="1" parent="1">
          <mxGeometry x="610" y="300" width="140" height="50" as="geometry" />
        </mxCell>
        <mxCell id="JdBObX5c28iziQ9NhJDq-8" value="Manage Payment" style="text;html=1;strokeColor=none;fillColor=none;align=center;verticalAlign=middle;whiteSpace=wrap;rounded=0;" vertex="1" parent="JdBObX5c28iziQ9NhJDq-3">
          <mxGeometry y="20" width="140" height="30" as="geometry" />
        </mxCell>
        <mxCell id="JdBObX5c28iziQ9NhJDq-4" value="1.2" style="swimlane;fontStyle=0;childLayout=stackLayout;horizontal=1;startSize=20;fillColor=#ffffff;horizontalStack=0;resizeParent=1;resizeParentMax=0;resizeLast=0;collapsible=0;marginBottom=0;swimlaneFillColor=#ffffff;" vertex="1" parent="1">
          <mxGeometry x="560" y="50" width="160" height="50" as="geometry" />
        </mxCell>
        <mxCell id="JdBObX5c28iziQ9NhJDq-7" value="Manage Booking Records" style="text;html=1;strokeColor=none;fillColor=none;align=center;verticalAlign=middle;whiteSpace=wrap;rounded=0;" vertex="1" parent="JdBObX5c28iziQ9NhJDq-4">
          <mxGeometry y="20" width="160" height="30" as="geometry" />
        </mxCell>
        <mxCell id="JdBObX5c28iziQ9NhJDq-9" value="Admin" style="html=1;dashed=0;whitespace=wrap;" vertex="1" parent="1">
          <mxGeometry x="580" y="190" width="120" height="50" as="geometry" />
        </mxCell>
        <mxCell id="JdBObX5c28iziQ9NhJDq-11" value="Customer" style="html=1;dashed=0;whitespace=wrap;" vertex="1" parent="1">
          <mxGeometry x="125" y="190" width="100" height="50" as="geometry" />
        </mxCell>
        <mxCell id="JdBObX5c28iziQ9NhJDq-12" value="" style="endArrow=classic;html=1;rounded=0;exitX=0.5;exitY=0;exitDx=0;exitDy=0;" edge="1" parent="1" source="JdBObX5c28iziQ9NhJDq-11">
          <mxGeometry width="50" height="50" relative="1" as="geometry">
            <mxPoint x="174.79" y="180" as="sourcePoint" />
            <mxPoint x="174.79" y="120" as="targetPoint" />
          </mxGeometry>
        </mxCell>
        <mxCell id="JdBObX5c28iziQ9NhJDq-14" value="" style="endArrow=none;html=1;rounded=0;exitX=0.5;exitY=0;exitDx=0;exitDy=0;endFill=0;startArrow=classic;startFill=1;" edge="1" parent="1">
          <mxGeometry width="50" height="50" relative="1" as="geometry">
            <mxPoint x="174.76" y="310" as="sourcePoint" />
            <mxPoint x="174.54999999999995" y="240" as="targetPoint" />
          </mxGeometry>
        </mxCell>
        <mxCell id="JdBObX5c28iziQ9NhJDq-15" value="Customer Database" style="html=1;dashed=0;whitespace=wrap;shape=partialRectangle;right=0;" vertex="1" parent="1">
          <mxGeometry x="380" y="40" width="120" height="40" as="geometry" />
        </mxCell>
        <mxCell id="JdBObX5c28iziQ9NhJDq-16" value="Ticket Database" style="html=1;dashed=0;whitespace=wrap;shape=partialRectangle;right=0;" vertex="1" parent="1">
          <mxGeometry x="380" y="160" width="120" height="40" as="geometry" />
        </mxCell>
        <mxCell id="JdBObX5c28iziQ9NhJDq-56" value="" style="edgeStyle=orthogonalEdgeStyle;rounded=0;orthogonalLoop=1;jettySize=auto;html=1;fontSize=10;startArrow=none;startFill=0;endArrow=classic;endFill=1;" edge="1" parent="1" source="JdBObX5c28iziQ9NhJDq-17" target="JdBObX5c28iziQ9NhJDq-8">
          <mxGeometry relative="1" as="geometry" />
        </mxCell>
        <mxCell id="JdBObX5c28iziQ9NhJDq-17" value="&lt;font style=&quot;font-size: 10px&quot;&gt;Customer Purchase Database&lt;/font&gt;" style="html=1;dashed=0;whitespace=wrap;shape=partialRectangle;right=0;" vertex="1" parent="1">
          <mxGeometry x="360" y="280" width="140" height="40" as="geometry" />
        </mxCell>
        <mxCell id="JdBObX5c28iziQ9NhJDq-25" value="Customer Data" style="text;strokeColor=none;fillColor=none;align=left;verticalAlign=middle;spacingLeft=4;spacingRight=4;overflow=hidden;points=[[0,0.5],[1,0.5]];portConstraint=eastwest;rotatable=0;rounded=1;labelBackgroundColor=#FFFFFF;fontSize=12;" vertex="1" parent="1">
          <mxGeometry x="115" y="150" width="120" height="20" as="geometry" />
        </mxCell>
        <mxCell id="JdBObX5c28iziQ9NhJDq-27" value="" style="endArrow=classic;html=1;rounded=0;exitX=1.014;exitY=0.257;exitDx=0;exitDy=0;exitPerimeter=0;entryX=-0.002;entryY=0.649;entryDx=0;entryDy=0;entryPerimeter=0;" edge="1" parent="1" source="JdBObX5c28iziQ9NhJDq-5" target="JdBObX5c28iziQ9NhJDq-15">
          <mxGeometry width="50" height="50" relative="1" as="geometry">
            <mxPoint x="290" y="115" as="sourcePoint" />
            <mxPoint x="340" y="65" as="targetPoint" />
            <Array as="points">
              <mxPoint x="290" y="90" />
              <mxPoint x="290" y="65" />
            </Array>
          </mxGeometry>
        </mxCell>
        <mxCell id="JdBObX5c28iziQ9NhJDq-28" value="Customer Data" style="text;strokeColor=none;fillColor=none;align=left;verticalAlign=middle;spacingLeft=4;spacingRight=4;overflow=hidden;points=[[0,0.5],[1,0.5]];portConstraint=eastwest;rotatable=0;rounded=1;labelBackgroundColor=#FFFFFF;fontSize=12;" vertex="1" parent="1">
          <mxGeometry x="270" y="40" width="120" height="20" as="geometry" />
        </mxCell>
        <mxCell id="JdBObX5c28iziQ9NhJDq-29" value="" style="endArrow=none;html=1;rounded=0;endFill=0;" edge="1" parent="1">
          <mxGeometry width="50" height="50" relative="1" as="geometry">
            <mxPoint x="450" y="40" as="sourcePoint" />
            <mxPoint x="610" y="10" as="targetPoint" />
            <Array as="points">
              <mxPoint x="450" y="10" />
            </Array>
          </mxGeometry>
        </mxCell>
        <mxCell id="JdBObX5c28iziQ9NhJDq-30" value="" style="endArrow=classic;html=1;rounded=0;entryX=0.348;entryY=-0.004;entryDx=0;entryDy=0;entryPerimeter=0;" edge="1" parent="1">
          <mxGeometry width="50" height="50" relative="1" as="geometry">
            <mxPoint x="610" y="10" as="sourcePoint" />
            <mxPoint x="609.6800000000001" y="49.79999999999998" as="targetPoint" />
          </mxGeometry>
        </mxCell>
        <mxCell id="JdBObX5c28iziQ9NhJDq-31" value="Booking Information" style="text;strokeColor=none;fillColor=none;align=left;verticalAlign=middle;spacingLeft=4;spacingRight=4;overflow=hidden;points=[[0,0.5],[1,0.5]];portConstraint=eastwest;rotatable=0;rounded=1;labelBackgroundColor=#FFFFFF;fontSize=12;" vertex="1" parent="1">
          <mxGeometry x="480" y="-10" width="120" height="20" as="geometry" />
        </mxCell>
        <mxCell id="JdBObX5c28iziQ9NhJDq-32" value="" style="endArrow=classic;html=1;rounded=0;entryX=0.5;entryY=0;entryDx=0;entryDy=0;exitX=0.51;exitY=1.016;exitDx=0;exitDy=0;exitPerimeter=0;" edge="1" parent="1" source="JdBObX5c28iziQ9NhJDq-7" target="JdBObX5c28iziQ9NhJDq-9">
          <mxGeometry width="50" height="50" relative="1" as="geometry">
            <mxPoint x="641" y="104" as="sourcePoint" />
            <mxPoint x="640.9999999999999" y="160" as="targetPoint" />
          </mxGeometry>
        </mxCell>
        <mxCell id="JdBObX5c28iziQ9NhJDq-33" value="Booking Information" style="text;strokeColor=none;fillColor=none;align=left;verticalAlign=middle;spacingLeft=4;spacingRight=4;overflow=hidden;points=[[0,0.5],[1,0.5]];portConstraint=eastwest;rotatable=0;rounded=1;labelBackgroundColor=#FFFFFF;fontSize=12;" vertex="1" parent="1">
          <mxGeometry x="580" y="120" width="120" height="20" as="geometry" />
        </mxCell>
        <mxCell id="JdBObX5c28iziQ9NhJDq-38" value="" style="endArrow=none;html=1;rounded=0;endFill=0;startArrow=classic;startFill=1;" edge="1" parent="1">
          <mxGeometry width="50" height="50" relative="1" as="geometry">
            <mxPoint x="500" y="185" as="sourcePoint" />
            <mxPoint x="540" y="185" as="targetPoint" />
          </mxGeometry>
        </mxCell>
        <mxCell id="JdBObX5c28iziQ9NhJDq-39" value="" style="endArrow=none;html=1;rounded=0;endFill=0;" edge="1" parent="1">
          <mxGeometry width="50" height="50" relative="1" as="geometry">
            <mxPoint x="540" y="184.74" as="sourcePoint" />
            <mxPoint x="540" y="220" as="targetPoint" />
          </mxGeometry>
        </mxCell>
        <mxCell id="JdBObX5c28iziQ9NhJDq-40" value="" style="endArrow=none;html=1;rounded=0;endFill=0;" edge="1" parent="1">
          <mxGeometry width="50" height="50" relative="1" as="geometry">
            <mxPoint x="540" y="220" as="sourcePoint" />
            <mxPoint x="580" y="220" as="targetPoint" />
          </mxGeometry>
        </mxCell>
        <mxCell id="JdBObX5c28iziQ9NhJDq-41" value="Ticket Type" style="text;strokeColor=none;fillColor=none;align=left;verticalAlign=middle;spacingLeft=4;spacingRight=4;overflow=hidden;points=[[0,0.5],[1,0.5]];portConstraint=eastwest;rotatable=0;rounded=1;labelBackgroundColor=#FFFFFF;fontSize=10;" vertex="1" parent="1">
          <mxGeometry x="505" y="190" width="70" height="20" as="geometry" />
        </mxCell>
        <mxCell id="JdBObX5c28iziQ9NhJDq-42" value="" style="endArrow=none;html=1;rounded=0;fontSize=10;endFill=0;" edge="1" parent="1">
          <mxGeometry width="50" height="50" relative="1" as="geometry">
            <mxPoint x="380" y="179.74" as="sourcePoint" />
            <mxPoint x="320" y="179.74" as="targetPoint" />
          </mxGeometry>
        </mxCell>
        <mxCell id="JdBObX5c28iziQ9NhJDq-43" value="" style="endArrow=none;html=1;rounded=0;fontSize=10;endFill=0;" edge="1" parent="1">
          <mxGeometry width="50" height="50" relative="1" as="geometry">
            <mxPoint x="320" y="220.5" as="sourcePoint" />
            <mxPoint x="320" y="179.5" as="targetPoint" />
          </mxGeometry>
        </mxCell>
        <mxCell id="JdBObX5c28iziQ9NhJDq-44" value="" style="endArrow=classic;html=1;rounded=0;fontSize=10;" edge="1" parent="1">
          <mxGeometry width="50" height="50" relative="1" as="geometry">
            <mxPoint x="320" y="220" as="sourcePoint" />
            <mxPoint x="225" y="220" as="targetPoint" />
          </mxGeometry>
        </mxCell>
        <mxCell id="JdBObX5c28iziQ9NhJDq-45" value="Ticket Type" style="text;strokeColor=none;fillColor=none;align=left;verticalAlign=middle;spacingLeft=4;spacingRight=4;overflow=hidden;points=[[0,0.5],[1,0.5]];portConstraint=eastwest;rotatable=0;rounded=1;labelBackgroundColor=#FFFFFF;fontSize=10;" vertex="1" parent="1">
          <mxGeometry x="290" y="190" width="70" height="20" as="geometry" />
        </mxCell>
        <mxCell id="JdBObX5c28iziQ9NhJDq-78" value="" style="edgeStyle=orthogonalEdgeStyle;rounded=0;orthogonalLoop=1;jettySize=auto;html=1;fontSize=10;startArrow=none;startFill=0;endArrow=classic;endFill=1;" edge="1" parent="1">
          <mxGeometry relative="1" as="geometry">
            <mxPoint x="360" y="389.99263157894734" as="sourcePoint" />
            <mxPoint x="260" y="354.94000000000005" as="targetPoint" />
          </mxGeometry>
        </mxCell>
        <mxCell id="JdBObX5c28iziQ9NhJDq-46" value="&lt;font style=&quot;font-size: 10px&quot;&gt;Customer Purchase Detail&lt;br&gt;Database&lt;br&gt;&lt;/font&gt;" style="html=1;dashed=0;whitespace=wrap;shape=partialRectangle;right=0;" vertex="1" parent="1">
          <mxGeometry x="360" y="360" width="140" height="40" as="geometry" />
        </mxCell>
        <mxCell id="JdBObX5c28iziQ9NhJDq-47" value="" style="endArrow=classic;html=1;rounded=0;exitX=1;exitY=0.5;exitDx=0;exitDy=0;entryX=0;entryY=0.75;entryDx=0;entryDy=0;" edge="1" parent="1" source="JdBObX5c28iziQ9NhJDq-6" target="JdBObX5c28iziQ9NhJDq-17">
          <mxGeometry width="50" height="50" relative="1" as="geometry">
            <mxPoint x="259.9999999999999" y="335.28" as="sourcePoint" />
            <mxPoint x="358.81" y="311.28" as="targetPoint" />
            <Array as="points">
              <mxPoint x="288" y="345" />
              <mxPoint x="287.62" y="310" />
            </Array>
          </mxGeometry>
        </mxCell>
        <mxCell id="JdBObX5c28iziQ9NhJDq-48" value="Booking Information" style="text;strokeColor=none;fillColor=none;align=left;verticalAlign=middle;spacingLeft=4;spacingRight=4;overflow=hidden;points=[[0,0.5],[1,0.5]];portConstraint=eastwest;rotatable=0;rounded=1;labelBackgroundColor=#FFFFFF;fontSize=10;" vertex="1" parent="1">
          <mxGeometry x="270" y="320" width="100" height="20" as="geometry" />
        </mxCell>
        <mxCell id="JdBObX5c28iziQ9NhJDq-49" value="Ticket Type Chosen " style="text;strokeColor=none;fillColor=none;align=left;verticalAlign=middle;spacingLeft=4;spacingRight=4;overflow=hidden;points=[[0,0.5],[1,0.5]];portConstraint=eastwest;rotatable=0;rounded=1;labelBackgroundColor=#FFFFFF;fontSize=12;" vertex="1" parent="1">
          <mxGeometry x="125" y="260" width="120" height="20" as="geometry" />
        </mxCell>
        <mxCell id="JdBObX5c28iziQ9NhJDq-57" value="Booking Details" style="text;strokeColor=none;fillColor=none;align=left;verticalAlign=middle;spacingLeft=4;spacingRight=4;overflow=hidden;points=[[0,0.5],[1,0.5]];portConstraint=eastwest;rotatable=0;rounded=1;labelBackgroundColor=#FFFFFF;fontSize=10;" vertex="1" parent="1">
          <mxGeometry x="514" y="300" width="100" height="20" as="geometry" />
        </mxCell>
        <mxCell id="JdBObX5c28iziQ9NhJDq-59" value="Booking and Payment Details" style="text;strokeColor=none;fillColor=none;align=left;verticalAlign=middle;spacingLeft=4;spacingRight=4;overflow=hidden;points=[[0,0.5],[1,0.5]];portConstraint=eastwest;rotatable=0;rounded=1;labelBackgroundColor=#FFFFFF;fontSize=10;" vertex="1" parent="1">
          <mxGeometry x="620" y="272" width="150" height="20" as="geometry" />
        </mxCell>
        <mxCell id="JdBObX5c28iziQ9NhJDq-63" value="" style="endArrow=none;html=1;rounded=0;fontSize=10;entryX=0.007;entryY=0.378;entryDx=0;entryDy=0;entryPerimeter=0;endFill=0;" edge="1" parent="1" target="JdBObX5c28iziQ9NhJDq-6">
          <mxGeometry width="50" height="50" relative="1" as="geometry">
            <mxPoint x="30" y="342" as="sourcePoint" />
            <mxPoint x="80" y="292" as="targetPoint" />
          </mxGeometry>
        </mxCell>
        <mxCell id="JdBObX5c28iziQ9NhJDq-64" value="" style="endArrow=none;html=1;rounded=0;fontSize=10;endFill=0;" edge="1" parent="1">
          <mxGeometry width="50" height="50" relative="1" as="geometry">
            <mxPoint x="30" y="342" as="sourcePoint" />
            <mxPoint x="30" y="222" as="targetPoint" />
          </mxGeometry>
        </mxCell>
        <mxCell id="JdBObX5c28iziQ9NhJDq-65" value="" style="endArrow=classic;html=1;rounded=0;fontSize=10;entryX=0.014;entryY=0.671;entryDx=0;entryDy=0;entryPerimeter=0;" edge="1" parent="1">
          <mxGeometry width="50" height="50" relative="1" as="geometry">
            <mxPoint x="30" y="222" as="sourcePoint" />
            <mxPoint x="126.39999999999998" y="221.54999999999995" as="targetPoint" />
          </mxGeometry>
        </mxCell>
        <mxCell id="JdBObX5c28iziQ9NhJDq-66" value="Booking Details" style="text;strokeColor=none;fillColor=none;align=left;verticalAlign=middle;spacingLeft=4;spacingRight=4;overflow=hidden;points=[[0,0.5],[1,0.5]];portConstraint=eastwest;rotatable=0;rounded=1;labelBackgroundColor=#FFFFFF;fontSize=10;" vertex="1" parent="1">
          <mxGeometry y="260" width="100" height="20" as="geometry" />
        </mxCell>
        <mxCell id="JdBObX5c28iziQ9NhJDq-68" value="" style="endArrow=none;html=1;rounded=0;fontSize=10;entryX=0.007;entryY=0.378;entryDx=0;entryDy=0;entryPerimeter=0;endFill=0;startArrow=classic;startFill=1;" edge="1" parent="1">
          <mxGeometry width="50" height="50" relative="1" as="geometry">
            <mxPoint x="750" y="333.9999999999998" as="sourcePoint" />
            <mxPoint x="811.19" y="333.34000000000015" as="targetPoint" />
          </mxGeometry>
        </mxCell>
        <mxCell id="JdBObX5c28iziQ9NhJDq-69" value="" style="endArrow=none;html=1;rounded=0;fontSize=10;endFill=0;" edge="1" parent="1">
          <mxGeometry width="50" height="50" relative="1" as="geometry">
            <mxPoint x="810" y="333.9999999999998" as="sourcePoint" />
            <mxPoint x="810" y="214" as="targetPoint" />
          </mxGeometry>
        </mxCell>
        <mxCell id="JdBObX5c28iziQ9NhJDq-70" value="" style="endArrow=none;html=1;rounded=0;fontSize=10;endFill=0;" edge="1" parent="1">
          <mxGeometry width="50" height="50" relative="1" as="geometry">
            <mxPoint x="700" y="215.07999999999998" as="sourcePoint" />
            <mxPoint x="810" y="215" as="targetPoint" />
          </mxGeometry>
        </mxCell>
        <mxCell id="JdBObX5c28iziQ9NhJDq-71" value="Booking and Payment Details" style="text;strokeColor=none;fillColor=none;align=left;verticalAlign=middle;spacingLeft=4;spacingRight=4;overflow=hidden;points=[[0,0.5],[1,0.5]];portConstraint=eastwest;rotatable=0;rounded=1;labelBackgroundColor=#FFFFFF;fontSize=10;" vertex="1" parent="1">
          <mxGeometry x="760" y="260" width="150" height="20" as="geometry" />
        </mxCell>
        <mxCell id="JdBObX5c28iziQ9NhJDq-74" value="" style="endArrow=none;html=1;rounded=0;fontSize=10;entryX=0.5;entryY=1;entryDx=0;entryDy=0;endFill=0;" edge="1" parent="1" target="JdBObX5c28iziQ9NhJDq-8">
          <mxGeometry width="50" height="50" relative="1" as="geometry">
            <mxPoint x="680" y="380" as="sourcePoint" />
            <mxPoint x="682" y="355" as="targetPoint" />
          </mxGeometry>
        </mxCell>
        <mxCell id="JdBObX5c28iziQ9NhJDq-75" value="" style="endArrow=none;html=1;rounded=0;fontSize=10;endFill=0;startArrow=none;" edge="1" parent="1" source="JdBObX5c28iziQ9NhJDq-76">
          <mxGeometry width="50" height="50" relative="1" as="geometry">
            <mxPoint x="510" y="379" as="sourcePoint" />
            <mxPoint x="680" y="379" as="targetPoint" />
          </mxGeometry>
        </mxCell>
        <mxCell id="JdBObX5c28iziQ9NhJDq-76" value="Update" style="text;strokeColor=none;fillColor=none;align=left;verticalAlign=middle;spacingLeft=4;spacingRight=4;overflow=hidden;points=[[0,0.5],[1,0.5]];portConstraint=eastwest;rotatable=0;rounded=1;labelBackgroundColor=#FFFFFF;fontSize=10;" vertex="1" parent="1">
          <mxGeometry x="575" y="370" width="50" height="20" as="geometry" />
        </mxCell>
        <mxCell id="JdBObX5c28iziQ9NhJDq-77" value="" style="endArrow=none;html=1;rounded=0;fontSize=10;endFill=0;startArrow=classic;startFill=1;" edge="1" parent="1" target="JdBObX5c28iziQ9NhJDq-76">
          <mxGeometry width="50" height="50" relative="1" as="geometry">
            <mxPoint x="510" y="379" as="sourcePoint" />
            <mxPoint x="680" y="379" as="targetPoint" />
          </mxGeometry>
        </mxCell>
        <mxCell id="JdBObX5c28iziQ9NhJDq-79" value="Confirmation" style="text;strokeColor=none;fillColor=none;align=left;verticalAlign=middle;spacingLeft=4;spacingRight=4;overflow=hidden;points=[[0,0.5],[1,0.5]];portConstraint=eastwest;rotatable=0;rounded=1;labelBackgroundColor=#FFFFFF;fontSize=10;" vertex="1" parent="1">
          <mxGeometry x="270" y="380" width="70" height="20" as="geometry" />
        </mxCell>
        <mxCell id="JdBObX5c28iziQ9NhJDq-80" value="STAFF" style="shape=table;startSize=30;container=1;collapsible=1;childLayout=tableLayout;fixedRows=1;rowLines=0;fontStyle=1;align=center;resizeLast=1;fontSize=10;" vertex="1" parent="1">
          <mxGeometry x="225" y="620" width="180" height="160" as="geometry" />
        </mxCell>
        <mxCell id="JdBObX5c28iziQ9NhJDq-81" value="" style="shape=tableRow;horizontal=0;startSize=0;swimlaneHead=0;swimlaneBody=0;fillColor=none;collapsible=0;dropTarget=0;points=[[0,0.5],[1,0.5]];portConstraint=eastwest;top=0;left=0;right=0;bottom=1;fontSize=10;" vertex="1" parent="JdBObX5c28iziQ9NhJDq-80">
          <mxGeometry y="30" width="180" height="30" as="geometry" />
        </mxCell>
        <mxCell id="JdBObX5c28iziQ9NhJDq-82" value="PK" style="shape=partialRectangle;connectable=0;fillColor=none;top=0;left=0;bottom=0;right=0;fontStyle=1;overflow=hidden;fontSize=10;" vertex="1" parent="JdBObX5c28iziQ9NhJDq-81">
          <mxGeometry width="30" height="30" as="geometry">
            <mxRectangle width="30" height="30" as="alternateBounds" />
          </mxGeometry>
        </mxCell>
        <mxCell id="JdBObX5c28iziQ9NhJDq-83" value="staff_id " style="shape=partialRectangle;connectable=0;fillColor=none;top=0;left=0;bottom=0;right=0;align=left;spacingLeft=6;fontStyle=5;overflow=hidden;fontSize=10;" vertex="1" parent="JdBObX5c28iziQ9NhJDq-81">
          <mxGeometry x="30" width="150" height="30" as="geometry">
            <mxRectangle width="150" height="30" as="alternateBounds" />
          </mxGeometry>
        </mxCell>
        <mxCell id="JdBObX5c28iziQ9NhJDq-84" value="" style="shape=tableRow;horizontal=0;startSize=0;swimlaneHead=0;swimlaneBody=0;fillColor=none;collapsible=0;dropTarget=0;points=[[0,0.5],[1,0.5]];portConstraint=eastwest;top=0;left=0;right=0;bottom=0;fontSize=10;" vertex="1" parent="JdBObX5c28iziQ9NhJDq-80">
          <mxGeometry y="60" width="180" height="30" as="geometry" />
        </mxCell>
        <mxCell id="JdBObX5c28iziQ9NhJDq-85" value="" style="shape=partialRectangle;connectable=0;fillColor=none;top=0;left=0;bottom=0;right=0;editable=1;overflow=hidden;fontSize=10;" vertex="1" parent="JdBObX5c28iziQ9NhJDq-84">
          <mxGeometry width="30" height="30" as="geometry">
            <mxRectangle width="30" height="30" as="alternateBounds" />
          </mxGeometry>
        </mxCell>
        <mxCell id="JdBObX5c28iziQ9NhJDq-86" value="sname" style="shape=partialRectangle;connectable=0;fillColor=none;top=0;left=0;bottom=0;right=0;align=left;spacingLeft=6;overflow=hidden;fontSize=10;fontStyle=1" vertex="1" parent="JdBObX5c28iziQ9NhJDq-84">
          <mxGeometry x="30" width="150" height="30" as="geometry">
            <mxRectangle width="150" height="30" as="alternateBounds" />
          </mxGeometry>
        </mxCell>
        <mxCell id="JdBObX5c28iziQ9NhJDq-87" value="" style="shape=tableRow;horizontal=0;startSize=0;swimlaneHead=0;swimlaneBody=0;fillColor=none;collapsible=0;dropTarget=0;points=[[0,0.5],[1,0.5]];portConstraint=eastwest;top=0;left=0;right=0;bottom=0;fontSize=10;" vertex="1" parent="JdBObX5c28iziQ9NhJDq-80">
          <mxGeometry y="90" width="180" height="30" as="geometry" />
        </mxCell>
        <mxCell id="JdBObX5c28iziQ9NhJDq-88" value="" style="shape=partialRectangle;connectable=0;fillColor=none;top=0;left=0;bottom=0;right=0;editable=1;overflow=hidden;fontSize=10;" vertex="1" parent="JdBObX5c28iziQ9NhJDq-87">
          <mxGeometry width="30" height="30" as="geometry">
            <mxRectangle width="30" height="30" as="alternateBounds" />
          </mxGeometry>
        </mxCell>
        <mxCell id="JdBObX5c28iziQ9NhJDq-89" value="semail" style="shape=partialRectangle;connectable=0;fillColor=none;top=0;left=0;bottom=0;right=0;align=left;spacingLeft=6;overflow=hidden;fontSize=10;fontStyle=1" vertex="1" parent="JdBObX5c28iziQ9NhJDq-87">
          <mxGeometry x="30" width="150" height="30" as="geometry">
            <mxRectangle width="150" height="30" as="alternateBounds" />
          </mxGeometry>
        </mxCell>
        <mxCell id="JdBObX5c28iziQ9NhJDq-90" value="" style="shape=tableRow;horizontal=0;startSize=0;swimlaneHead=0;swimlaneBody=0;fillColor=none;collapsible=0;dropTarget=0;points=[[0,0.5],[1,0.5]];portConstraint=eastwest;top=0;left=0;right=0;bottom=0;fontSize=10;" vertex="1" parent="JdBObX5c28iziQ9NhJDq-80">
          <mxGeometry y="120" width="180" height="30" as="geometry" />
        </mxCell>
        <mxCell id="JdBObX5c28iziQ9NhJDq-91" value="" style="shape=partialRectangle;connectable=0;fillColor=none;top=0;left=0;bottom=0;right=0;editable=1;overflow=hidden;fontSize=10;" vertex="1" parent="JdBObX5c28iziQ9NhJDq-90">
          <mxGeometry width="30" height="30" as="geometry">
            <mxRectangle width="30" height="30" as="alternateBounds" />
          </mxGeometry>
        </mxCell>
        <mxCell id="JdBObX5c28iziQ9NhJDq-92" value="spassword" style="shape=partialRectangle;connectable=0;fillColor=none;top=0;left=0;bottom=0;right=0;align=left;spacingLeft=6;overflow=hidden;fontSize=10;fontStyle=1" vertex="1" parent="JdBObX5c28iziQ9NhJDq-90">
          <mxGeometry x="30" width="150" height="30" as="geometry">
            <mxRectangle width="150" height="30" as="alternateBounds" />
          </mxGeometry>
        </mxCell>
        <mxCell id="JdBObX5c28iziQ9NhJDq-93" value="DAILY_TICKET" style="shape=table;startSize=30;container=1;collapsible=1;childLayout=tableLayout;fixedRows=1;rowLines=0;fontStyle=1;align=center;resizeLast=1;fontSize=10;" vertex="1" parent="1">
          <mxGeometry x="700" y="610" width="180" height="160.00000000000023" as="geometry" />
        </mxCell>
        <mxCell id="JdBObX5c28iziQ9NhJDq-94" value="" style="shape=tableRow;horizontal=0;startSize=0;swimlaneHead=0;swimlaneBody=0;fillColor=none;collapsible=0;dropTarget=0;points=[[0,0.5],[1,0.5]];portConstraint=eastwest;top=0;left=0;right=0;bottom=1;fontSize=10;" vertex="1" parent="JdBObX5c28iziQ9NhJDq-93">
          <mxGeometry y="30" width="180" height="30" as="geometry" />
        </mxCell>
        <mxCell id="JdBObX5c28iziQ9NhJDq-95" value="PK" style="shape=partialRectangle;connectable=0;fillColor=none;top=0;left=0;bottom=0;right=0;fontStyle=1;overflow=hidden;fontSize=10;" vertex="1" parent="JdBObX5c28iziQ9NhJDq-94">
          <mxGeometry width="30" height="30" as="geometry">
            <mxRectangle width="30" height="30" as="alternateBounds" />
          </mxGeometry>
        </mxCell>
        <mxCell id="JdBObX5c28iziQ9NhJDq-96" value="Daily_Ticket_id" style="shape=partialRectangle;connectable=0;fillColor=none;top=0;left=0;bottom=0;right=0;align=left;spacingLeft=6;fontStyle=5;overflow=hidden;fontSize=10;" vertex="1" parent="JdBObX5c28iziQ9NhJDq-94">
          <mxGeometry x="30" width="150" height="30" as="geometry">
            <mxRectangle width="150" height="30" as="alternateBounds" />
          </mxGeometry>
        </mxCell>
        <mxCell id="JdBObX5c28iziQ9NhJDq-97" value="" style="shape=tableRow;horizontal=0;startSize=0;swimlaneHead=0;swimlaneBody=0;fillColor=none;collapsible=0;dropTarget=0;points=[[0,0.5],[1,0.5]];portConstraint=eastwest;top=0;left=0;right=0;bottom=0;fontSize=10;" vertex="1" parent="JdBObX5c28iziQ9NhJDq-93">
          <mxGeometry y="60" width="180" height="30" as="geometry" />
        </mxCell>
        <mxCell id="JdBObX5c28iziQ9NhJDq-98" value="" style="shape=partialRectangle;connectable=0;fillColor=none;top=0;left=0;bottom=0;right=0;editable=1;overflow=hidden;fontSize=10;" vertex="1" parent="JdBObX5c28iziQ9NhJDq-97">
          <mxGeometry width="30" height="30" as="geometry">
            <mxRectangle width="30" height="30" as="alternateBounds" />
          </mxGeometry>
        </mxCell>
        <mxCell id="JdBObX5c28iziQ9NhJDq-99" value="ent_date" style="shape=partialRectangle;connectable=0;fillColor=none;top=0;left=0;bottom=0;right=0;align=left;spacingLeft=6;overflow=hidden;fontSize=10;fontStyle=1" vertex="1" parent="JdBObX5c28iziQ9NhJDq-97">
          <mxGeometry x="30" width="150" height="30" as="geometry">
            <mxRectangle width="150" height="30" as="alternateBounds" />
          </mxGeometry>
        </mxCell>
        <mxCell id="JdBObX5c28iziQ9NhJDq-100" value="" style="shape=tableRow;horizontal=0;startSize=0;swimlaneHead=0;swimlaneBody=0;fillColor=none;collapsible=0;dropTarget=0;points=[[0,0.5],[1,0.5]];portConstraint=eastwest;top=0;left=0;right=0;bottom=0;fontSize=10;" vertex="1" parent="JdBObX5c28iziQ9NhJDq-93">
          <mxGeometry y="90" width="180" height="30" as="geometry" />
        </mxCell>
        <mxCell id="JdBObX5c28iziQ9NhJDq-101" value="" style="shape=partialRectangle;connectable=0;fillColor=none;top=0;left=0;bottom=0;right=0;editable=1;overflow=hidden;fontSize=10;" vertex="1" parent="JdBObX5c28iziQ9NhJDq-100">
          <mxGeometry width="30" height="30" as="geometry">
            <mxRectangle width="30" height="30" as="alternateBounds" />
          </mxGeometry>
        </mxCell>
        <mxCell id="JdBObX5c28iziQ9NhJDq-102" value="quantity" style="shape=partialRectangle;connectable=0;fillColor=none;top=0;left=0;bottom=0;right=0;align=left;spacingLeft=6;overflow=hidden;fontSize=10;fontStyle=1" vertex="1" parent="JdBObX5c28iziQ9NhJDq-100">
          <mxGeometry x="30" width="150" height="30" as="geometry">
            <mxRectangle width="150" height="30" as="alternateBounds" />
          </mxGeometry>
        </mxCell>
        <mxCell id="JdBObX5c28iziQ9NhJDq-106" value="" style="shape=tableRow;horizontal=0;startSize=0;swimlaneHead=0;swimlaneBody=0;fillColor=none;collapsible=0;dropTarget=0;points=[[0,0.5],[1,0.5]];portConstraint=eastwest;top=0;left=0;right=0;bottom=0;fontSize=10;" vertex="1" parent="JdBObX5c28iziQ9NhJDq-93">
          <mxGeometry y="120" width="180" height="30" as="geometry" />
        </mxCell>
        <mxCell id="JdBObX5c28iziQ9NhJDq-107" value="" style="shape=partialRectangle;connectable=0;fillColor=none;top=0;left=0;bottom=0;right=0;editable=1;overflow=hidden;fontSize=10;" vertex="1" parent="JdBObX5c28iziQ9NhJDq-106">
          <mxGeometry width="30" height="30" as="geometry">
            <mxRectangle width="30" height="30" as="alternateBounds" />
          </mxGeometry>
        </mxCell>
        <mxCell id="JdBObX5c28iziQ9NhJDq-108" value="description" style="shape=partialRectangle;connectable=0;fillColor=none;top=0;left=0;bottom=0;right=0;align=left;spacingLeft=6;overflow=hidden;fontSize=10;" vertex="1" parent="JdBObX5c28iziQ9NhJDq-106">
          <mxGeometry x="30" width="150" height="30" as="geometry">
            <mxRectangle width="150" height="30" as="alternateBounds" />
          </mxGeometry>
        </mxCell>
        <mxCell id="JdBObX5c28iziQ9NhJDq-109" value="CUSTOMER" style="shape=table;startSize=30;container=1;collapsible=1;childLayout=tableLayout;fixedRows=1;rowLines=0;fontStyle=1;align=center;resizeLast=1;fontSize=10;" vertex="1" parent="1">
          <mxGeometry x="180" y="820" width="180" height="200" as="geometry" />
        </mxCell>
        <mxCell id="JdBObX5c28iziQ9NhJDq-110" value="" style="shape=tableRow;horizontal=0;startSize=0;swimlaneHead=0;swimlaneBody=0;fillColor=none;collapsible=0;dropTarget=0;points=[[0,0.5],[1,0.5]];portConstraint=eastwest;top=0;left=0;right=0;bottom=1;fontSize=10;" vertex="1" parent="JdBObX5c28iziQ9NhJDq-109">
          <mxGeometry y="30" width="180" height="30" as="geometry" />
        </mxCell>
        <mxCell id="JdBObX5c28iziQ9NhJDq-111" value="PK" style="shape=partialRectangle;connectable=0;fillColor=none;top=0;left=0;bottom=0;right=0;fontStyle=1;overflow=hidden;fontSize=10;" vertex="1" parent="JdBObX5c28iziQ9NhJDq-110">
          <mxGeometry width="30" height="30" as="geometry">
            <mxRectangle width="30" height="30" as="alternateBounds" />
          </mxGeometry>
        </mxCell>
        <mxCell id="JdBObX5c28iziQ9NhJDq-112" value="custID" style="shape=partialRectangle;connectable=0;fillColor=none;top=0;left=0;bottom=0;right=0;align=left;spacingLeft=6;fontStyle=5;overflow=hidden;fontSize=10;" vertex="1" parent="JdBObX5c28iziQ9NhJDq-110">
          <mxGeometry x="30" width="150" height="30" as="geometry">
            <mxRectangle width="150" height="30" as="alternateBounds" />
          </mxGeometry>
        </mxCell>
        <mxCell id="JdBObX5c28iziQ9NhJDq-113" value="" style="shape=tableRow;horizontal=0;startSize=0;swimlaneHead=0;swimlaneBody=0;fillColor=none;collapsible=0;dropTarget=0;points=[[0,0.5],[1,0.5]];portConstraint=eastwest;top=0;left=0;right=0;bottom=0;fontSize=10;" vertex="1" parent="JdBObX5c28iziQ9NhJDq-109">
          <mxGeometry y="60" width="180" height="30" as="geometry" />
        </mxCell>
        <mxCell id="JdBObX5c28iziQ9NhJDq-114" value="" style="shape=partialRectangle;connectable=0;fillColor=none;top=0;left=0;bottom=0;right=0;editable=1;overflow=hidden;fontSize=10;" vertex="1" parent="JdBObX5c28iziQ9NhJDq-113">
          <mxGeometry width="30" height="30" as="geometry">
            <mxRectangle width="30" height="30" as="alternateBounds" />
          </mxGeometry>
        </mxCell>
        <mxCell id="JdBObX5c28iziQ9NhJDq-115" value="username" style="shape=partialRectangle;connectable=0;fillColor=none;top=0;left=0;bottom=0;right=0;align=left;spacingLeft=6;overflow=hidden;fontSize=10;fontStyle=1" vertex="1" parent="JdBObX5c28iziQ9NhJDq-113">
          <mxGeometry x="30" width="150" height="30" as="geometry">
            <mxRectangle width="150" height="30" as="alternateBounds" />
          </mxGeometry>
        </mxCell>
        <mxCell id="JdBObX5c28iziQ9NhJDq-116" value="" style="shape=tableRow;horizontal=0;startSize=0;swimlaneHead=0;swimlaneBody=0;fillColor=none;collapsible=0;dropTarget=0;points=[[0,0.5],[1,0.5]];portConstraint=eastwest;top=0;left=0;right=0;bottom=0;fontSize=10;" vertex="1" parent="JdBObX5c28iziQ9NhJDq-109">
          <mxGeometry y="90" width="180" height="30" as="geometry" />
        </mxCell>
        <mxCell id="JdBObX5c28iziQ9NhJDq-117" value="" style="shape=partialRectangle;connectable=0;fillColor=none;top=0;left=0;bottom=0;right=0;editable=1;overflow=hidden;fontSize=10;" vertex="1" parent="JdBObX5c28iziQ9NhJDq-116">
          <mxGeometry width="30" height="30" as="geometry">
            <mxRectangle width="30" height="30" as="alternateBounds" />
          </mxGeometry>
        </mxCell>
        <mxCell id="JdBObX5c28iziQ9NhJDq-118" value="icno" style="shape=partialRectangle;connectable=0;fillColor=none;top=0;left=0;bottom=0;right=0;align=left;spacingLeft=6;overflow=hidden;fontSize=10;fontStyle=1" vertex="1" parent="JdBObX5c28iziQ9NhJDq-116">
          <mxGeometry x="30" width="150" height="30" as="geometry">
            <mxRectangle width="150" height="30" as="alternateBounds" />
          </mxGeometry>
        </mxCell>
        <mxCell id="JdBObX5c28iziQ9NhJDq-119" value="" style="shape=tableRow;horizontal=0;startSize=0;swimlaneHead=0;swimlaneBody=0;fillColor=none;collapsible=0;dropTarget=0;points=[[0,0.5],[1,0.5]];portConstraint=eastwest;top=0;left=0;right=0;bottom=0;fontSize=10;" vertex="1" parent="JdBObX5c28iziQ9NhJDq-109">
          <mxGeometry y="120" width="180" height="40" as="geometry" />
        </mxCell>
        <mxCell id="JdBObX5c28iziQ9NhJDq-120" value="" style="shape=partialRectangle;connectable=0;fillColor=none;top=0;left=0;bottom=0;right=0;editable=1;overflow=hidden;fontSize=10;" vertex="1" parent="JdBObX5c28iziQ9NhJDq-119">
          <mxGeometry width="30" height="40" as="geometry">
            <mxRectangle width="30" height="40" as="alternateBounds" />
          </mxGeometry>
        </mxCell>
        <mxCell id="JdBObX5c28iziQ9NhJDq-121" value="email" style="shape=partialRectangle;connectable=0;fillColor=none;top=0;left=0;bottom=0;right=0;align=left;spacingLeft=6;overflow=hidden;fontSize=10;fontStyle=1" vertex="1" parent="JdBObX5c28iziQ9NhJDq-119">
          <mxGeometry x="30" width="150" height="40" as="geometry">
            <mxRectangle width="150" height="40" as="alternateBounds" />
          </mxGeometry>
        </mxCell>
        <mxCell id="JdBObX5c28iziQ9NhJDq-122" value="" style="shape=tableRow;horizontal=0;startSize=0;swimlaneHead=0;swimlaneBody=0;fillColor=none;collapsible=0;dropTarget=0;points=[[0,0.5],[1,0.5]];portConstraint=eastwest;top=0;left=0;right=0;bottom=0;fontSize=10;" vertex="1" parent="JdBObX5c28iziQ9NhJDq-109">
          <mxGeometry y="160" width="180" height="30" as="geometry" />
        </mxCell>
        <mxCell id="JdBObX5c28iziQ9NhJDq-123" value="" style="shape=partialRectangle;connectable=0;fillColor=none;top=0;left=0;bottom=0;right=0;editable=1;overflow=hidden;fontSize=10;" vertex="1" parent="JdBObX5c28iziQ9NhJDq-122">
          <mxGeometry width="30" height="30" as="geometry">
            <mxRectangle width="30" height="30" as="alternateBounds" />
          </mxGeometry>
        </mxCell>
        <mxCell id="JdBObX5c28iziQ9NhJDq-124" value="password" style="shape=partialRectangle;connectable=0;fillColor=none;top=0;left=0;bottom=0;right=0;align=left;spacingLeft=6;overflow=hidden;fontSize=10;fontStyle=1" vertex="1" parent="JdBObX5c28iziQ9NhJDq-122">
          <mxGeometry x="30" width="150" height="30" as="geometry">
            <mxRectangle width="150" height="30" as="alternateBounds" />
          </mxGeometry>
        </mxCell>
        <mxCell id="JdBObX5c28iziQ9NhJDq-125" value="ticket_type" style="shape=table;startSize=30;container=1;collapsible=1;childLayout=tableLayout;fixedRows=1;rowLines=0;fontStyle=1;align=center;resizeLast=1;fontSize=10;" vertex="1" parent="1">
          <mxGeometry x="790" y="910" width="180" height="139.99999999999977" as="geometry" />
        </mxCell>
        <mxCell id="JdBObX5c28iziQ9NhJDq-126" value="" style="shape=tableRow;horizontal=0;startSize=0;swimlaneHead=0;swimlaneBody=0;fillColor=none;collapsible=0;dropTarget=0;points=[[0,0.5],[1,0.5]];portConstraint=eastwest;top=0;left=0;right=0;bottom=1;fontSize=10;" vertex="1" parent="JdBObX5c28iziQ9NhJDq-125">
          <mxGeometry y="30" width="180" height="40" as="geometry" />
        </mxCell>
        <mxCell id="JdBObX5c28iziQ9NhJDq-127" value="PK" style="shape=partialRectangle;connectable=0;fillColor=none;top=0;left=0;bottom=0;right=0;fontStyle=1;overflow=hidden;fontSize=10;" vertex="1" parent="JdBObX5c28iziQ9NhJDq-126">
          <mxGeometry width="30" height="40" as="geometry">
            <mxRectangle width="30" height="40" as="alternateBounds" />
          </mxGeometry>
        </mxCell>
        <mxCell id="JdBObX5c28iziQ9NhJDq-128" value="ticket_type_name" style="shape=partialRectangle;connectable=0;fillColor=none;top=0;left=0;bottom=0;right=0;align=left;spacingLeft=6;fontStyle=5;overflow=hidden;fontSize=10;" vertex="1" parent="JdBObX5c28iziQ9NhJDq-126">
          <mxGeometry x="30" width="150" height="40" as="geometry">
            <mxRectangle width="150" height="40" as="alternateBounds" />
          </mxGeometry>
        </mxCell>
        <mxCell id="JdBObX5c28iziQ9NhJDq-129" value="" style="shape=tableRow;horizontal=0;startSize=0;swimlaneHead=0;swimlaneBody=0;fillColor=none;collapsible=0;dropTarget=0;points=[[0,0.5],[1,0.5]];portConstraint=eastwest;top=0;left=0;right=0;bottom=0;fontSize=10;" vertex="1" parent="JdBObX5c28iziQ9NhJDq-125">
          <mxGeometry y="70" width="180" height="30" as="geometry" />
        </mxCell>
        <mxCell id="JdBObX5c28iziQ9NhJDq-130" value="" style="shape=partialRectangle;connectable=0;fillColor=none;top=0;left=0;bottom=0;right=0;editable=1;overflow=hidden;fontSize=10;" vertex="1" parent="JdBObX5c28iziQ9NhJDq-129">
          <mxGeometry width="30" height="30" as="geometry">
            <mxRectangle width="30" height="30" as="alternateBounds" />
          </mxGeometry>
        </mxCell>
        <mxCell id="JdBObX5c28iziQ9NhJDq-131" value="price" style="shape=partialRectangle;connectable=0;fillColor=none;top=0;left=0;bottom=0;right=0;align=left;spacingLeft=6;overflow=hidden;fontSize=10;fontStyle=1" vertex="1" parent="JdBObX5c28iziQ9NhJDq-129">
          <mxGeometry x="30" width="150" height="30" as="geometry">
            <mxRectangle width="150" height="30" as="alternateBounds" />
          </mxGeometry>
        </mxCell>
        <mxCell id="JdBObX5c28iziQ9NhJDq-132" value="" style="shape=tableRow;horizontal=0;startSize=0;swimlaneHead=0;swimlaneBody=0;fillColor=none;collapsible=0;dropTarget=0;points=[[0,0.5],[1,0.5]];portConstraint=eastwest;top=0;left=0;right=0;bottom=0;fontSize=10;" vertex="1" parent="JdBObX5c28iziQ9NhJDq-125">
          <mxGeometry y="100" width="180" height="30" as="geometry" />
        </mxCell>
        <mxCell id="JdBObX5c28iziQ9NhJDq-133" value="" style="shape=partialRectangle;connectable=0;fillColor=none;top=0;left=0;bottom=0;right=0;editable=1;overflow=hidden;fontSize=10;" vertex="1" parent="JdBObX5c28iziQ9NhJDq-132">
          <mxGeometry width="30" height="30" as="geometry">
            <mxRectangle width="30" height="30" as="alternateBounds" />
          </mxGeometry>
        </mxCell>
        <mxCell id="JdBObX5c28iziQ9NhJDq-134" value="description" style="shape=partialRectangle;connectable=0;fillColor=none;top=0;left=0;bottom=0;right=0;align=left;spacingLeft=6;overflow=hidden;fontSize=10;" vertex="1" parent="JdBObX5c28iziQ9NhJDq-132">
          <mxGeometry x="30" width="150" height="30" as="geometry">
            <mxRectangle width="150" height="30" as="alternateBounds" />
          </mxGeometry>
        </mxCell>
        <mxCell id="JdBObX5c28iziQ9NhJDq-138" value="CUST_PURCHASE" style="shape=table;startSize=30;container=1;collapsible=1;childLayout=tableLayout;fixedRows=1;rowLines=0;fontStyle=1;align=center;resizeLast=1;fontSize=10;labelBorderColor=none;" vertex="1" parent="1">
          <mxGeometry x="474" y="680" width="180" height="260" as="geometry" />
        </mxCell>
        <mxCell id="JdBObX5c28iziQ9NhJDq-139" value="" style="shape=tableRow;horizontal=0;startSize=0;swimlaneHead=0;swimlaneBody=0;fillColor=none;collapsible=0;dropTarget=0;points=[[0,0.5],[1,0.5]];portConstraint=eastwest;top=0;left=0;right=0;bottom=0;fontSize=10;" vertex="1" parent="JdBObX5c28iziQ9NhJDq-138">
          <mxGeometry y="30" width="180" height="30" as="geometry" />
        </mxCell>
        <mxCell id="JdBObX5c28iziQ9NhJDq-140" value="PK" style="shape=partialRectangle;connectable=0;fillColor=none;top=0;left=0;bottom=0;right=0;fontStyle=1;overflow=hidden;fontSize=10;" vertex="1" parent="JdBObX5c28iziQ9NhJDq-139">
          <mxGeometry width="60" height="30" as="geometry">
            <mxRectangle width="60" height="30" as="alternateBounds" />
          </mxGeometry>
        </mxCell>
        <mxCell id="JdBObX5c28iziQ9NhJDq-141" value="Cust_Purchase_Id" style="shape=partialRectangle;connectable=0;fillColor=none;top=0;left=0;bottom=0;right=0;align=left;spacingLeft=6;fontStyle=5;overflow=hidden;fontSize=10;" vertex="1" parent="JdBObX5c28iziQ9NhJDq-139">
          <mxGeometry x="60" width="120" height="30" as="geometry">
            <mxRectangle width="120" height="30" as="alternateBounds" />
          </mxGeometry>
        </mxCell>
        <mxCell id="JdBObX5c28iziQ9NhJDq-142" value="" style="shape=tableRow;horizontal=0;startSize=0;swimlaneHead=0;swimlaneBody=0;fillColor=none;collapsible=0;dropTarget=0;points=[[0,0.5],[1,0.5]];portConstraint=eastwest;top=0;left=0;right=0;bottom=1;fontSize=10;" vertex="1" parent="JdBObX5c28iziQ9NhJDq-138">
          <mxGeometry y="60" width="180" height="30" as="geometry" />
        </mxCell>
        <mxCell id="JdBObX5c28iziQ9NhJDq-143" value="PK,FK" style="shape=partialRectangle;connectable=0;fillColor=none;top=0;left=0;bottom=0;right=0;fontStyle=1;overflow=hidden;fontSize=10;" vertex="1" parent="JdBObX5c28iziQ9NhJDq-142">
          <mxGeometry width="60" height="30" as="geometry">
            <mxRectangle width="60" height="30" as="alternateBounds" />
          </mxGeometry>
        </mxCell>
        <mxCell id="JdBObX5c28iziQ9NhJDq-144" value="custID" style="shape=partialRectangle;connectable=0;fillColor=none;top=0;left=0;bottom=0;right=0;align=left;spacingLeft=6;fontStyle=5;overflow=hidden;fontSize=10;" vertex="1" parent="JdBObX5c28iziQ9NhJDq-142">
          <mxGeometry x="60" width="120" height="30" as="geometry">
            <mxRectangle width="120" height="30" as="alternateBounds" />
          </mxGeometry>
        </mxCell>
        <mxCell id="JdBObX5c28iziQ9NhJDq-145" value="" style="shape=tableRow;horizontal=0;startSize=0;swimlaneHead=0;swimlaneBody=0;fillColor=none;collapsible=0;dropTarget=0;points=[[0,0.5],[1,0.5]];portConstraint=eastwest;top=0;left=0;right=0;bottom=0;fontSize=10;" vertex="1" parent="JdBObX5c28iziQ9NhJDq-138">
          <mxGeometry y="90" width="180" height="30" as="geometry" />
        </mxCell>
        <mxCell id="JdBObX5c28iziQ9NhJDq-146" value="" style="shape=partialRectangle;connectable=0;fillColor=none;top=0;left=0;bottom=0;right=0;editable=1;overflow=hidden;fontSize=10;" vertex="1" parent="JdBObX5c28iziQ9NhJDq-145">
          <mxGeometry width="60" height="30" as="geometry">
            <mxRectangle width="60" height="30" as="alternateBounds" />
          </mxGeometry>
        </mxCell>
        <mxCell id="JdBObX5c28iziQ9NhJDq-147" value="email" style="shape=partialRectangle;connectable=0;fillColor=none;top=0;left=0;bottom=0;right=0;align=left;spacingLeft=6;overflow=hidden;fontSize=10;fontStyle=1" vertex="1" parent="JdBObX5c28iziQ9NhJDq-145">
          <mxGeometry x="60" width="120" height="30" as="geometry">
            <mxRectangle width="120" height="30" as="alternateBounds" />
          </mxGeometry>
        </mxCell>
        <mxCell id="JdBObX5c28iziQ9NhJDq-148" value="" style="shape=tableRow;horizontal=0;startSize=0;swimlaneHead=0;swimlaneBody=0;fillColor=none;collapsible=0;dropTarget=0;points=[[0,0.5],[1,0.5]];portConstraint=eastwest;top=0;left=0;right=0;bottom=0;fontSize=10;" vertex="1" parent="JdBObX5c28iziQ9NhJDq-138">
          <mxGeometry y="120" width="180" height="30" as="geometry" />
        </mxCell>
        <mxCell id="JdBObX5c28iziQ9NhJDq-149" value="" style="shape=partialRectangle;connectable=0;fillColor=none;top=0;left=0;bottom=0;right=0;editable=1;overflow=hidden;fontSize=10;" vertex="1" parent="JdBObX5c28iziQ9NhJDq-148">
          <mxGeometry width="60" height="30" as="geometry">
            <mxRectangle width="60" height="30" as="alternateBounds" />
          </mxGeometry>
        </mxCell>
        <mxCell id="JdBObX5c28iziQ9NhJDq-150" value="name" style="shape=partialRectangle;connectable=0;fillColor=none;top=0;left=0;bottom=0;right=0;align=left;spacingLeft=6;overflow=hidden;fontSize=10;fontStyle=1" vertex="1" parent="JdBObX5c28iziQ9NhJDq-148">
          <mxGeometry x="60" width="120" height="30" as="geometry">
            <mxRectangle width="120" height="30" as="alternateBounds" />
          </mxGeometry>
        </mxCell>
        <mxCell id="JdBObX5c28iziQ9NhJDq-151" value="" style="shape=tableRow;horizontal=0;startSize=0;swimlaneHead=0;swimlaneBody=0;fillColor=none;collapsible=0;dropTarget=0;points=[[0,0.5],[1,0.5]];portConstraint=eastwest;top=0;left=0;right=0;bottom=0;fontSize=10;" vertex="1" parent="JdBObX5c28iziQ9NhJDq-138">
          <mxGeometry y="150" width="180" height="30" as="geometry" />
        </mxCell>
        <mxCell id="JdBObX5c28iziQ9NhJDq-152" value="" style="shape=partialRectangle;connectable=0;fillColor=none;top=0;left=0;bottom=0;right=0;editable=1;overflow=hidden;fontSize=10;" vertex="1" parent="JdBObX5c28iziQ9NhJDq-151">
          <mxGeometry width="60" height="30" as="geometry">
            <mxRectangle width="60" height="30" as="alternateBounds" />
          </mxGeometry>
        </mxCell>
        <mxCell id="JdBObX5c28iziQ9NhJDq-153" value="Purchase_Date" style="shape=partialRectangle;connectable=0;fillColor=none;top=0;left=0;bottom=0;right=0;align=left;spacingLeft=6;overflow=hidden;fontSize=10;fontStyle=1" vertex="1" parent="JdBObX5c28iziQ9NhJDq-151">
          <mxGeometry x="60" width="120" height="30" as="geometry">
            <mxRectangle width="120" height="30" as="alternateBounds" />
          </mxGeometry>
        </mxCell>
        <mxCell id="JdBObX5c28iziQ9NhJDq-154" value="" style="shape=tableRow;horizontal=0;startSize=0;swimlaneHead=0;swimlaneBody=0;fillColor=none;collapsible=0;dropTarget=0;points=[[0,0.5],[1,0.5]];portConstraint=eastwest;top=0;left=0;right=0;bottom=0;fontSize=10;" vertex="1" parent="JdBObX5c28iziQ9NhJDq-138">
          <mxGeometry y="180" width="180" height="40" as="geometry" />
        </mxCell>
        <mxCell id="JdBObX5c28iziQ9NhJDq-155" value="" style="shape=partialRectangle;connectable=0;fillColor=none;top=0;left=0;bottom=0;right=0;editable=1;overflow=hidden;fontSize=10;" vertex="1" parent="JdBObX5c28iziQ9NhJDq-154">
          <mxGeometry width="60" height="40" as="geometry">
            <mxRectangle width="60" height="40" as="alternateBounds" />
          </mxGeometry>
        </mxCell>
        <mxCell id="JdBObX5c28iziQ9NhJDq-156" value="Total_Price" style="shape=partialRectangle;connectable=0;fillColor=none;top=0;left=0;bottom=0;right=0;align=left;spacingLeft=6;overflow=hidden;fontSize=10;fontStyle=1" vertex="1" parent="JdBObX5c28iziQ9NhJDq-154">
          <mxGeometry x="60" width="120" height="40" as="geometry">
            <mxRectangle width="120" height="40" as="alternateBounds" />
          </mxGeometry>
        </mxCell>
        <mxCell id="JdBObX5c28iziQ9NhJDq-157" value="" style="shape=tableRow;horizontal=0;startSize=0;swimlaneHead=0;swimlaneBody=0;fillColor=none;collapsible=0;dropTarget=0;points=[[0,0.5],[1,0.5]];portConstraint=eastwest;top=0;left=0;right=0;bottom=0;fontSize=10;" vertex="1" parent="JdBObX5c28iziQ9NhJDq-138">
          <mxGeometry y="220" width="180" height="30" as="geometry" />
        </mxCell>
        <mxCell id="JdBObX5c28iziQ9NhJDq-158" value="" style="shape=partialRectangle;connectable=0;fillColor=none;top=0;left=0;bottom=0;right=0;editable=1;overflow=hidden;fontSize=10;" vertex="1" parent="JdBObX5c28iziQ9NhJDq-157">
          <mxGeometry width="60" height="30" as="geometry">
            <mxRectangle width="60" height="30" as="alternateBounds" />
          </mxGeometry>
        </mxCell>
        <mxCell id="JdBObX5c28iziQ9NhJDq-159" value="Payment_Method" style="shape=partialRectangle;connectable=0;fillColor=none;top=0;left=0;bottom=0;right=0;align=left;spacingLeft=6;overflow=hidden;fontSize=10;fontStyle=1" vertex="1" parent="JdBObX5c28iziQ9NhJDq-157">
          <mxGeometry x="60" width="120" height="30" as="geometry">
            <mxRectangle width="120" height="30" as="alternateBounds" />
          </mxGeometry>
        </mxCell>
        <mxCell id="JdBObX5c28iziQ9NhJDq-166" value="CUST_PURCHASE_DETAILS" style="shape=table;startSize=30;container=1;collapsible=1;childLayout=tableLayout;fixedRows=1;rowLines=0;fontStyle=1;align=center;resizeLast=1;fontSize=10;" vertex="1" parent="1">
          <mxGeometry x="440" y="1030" width="244" height="190" as="geometry" />
        </mxCell>
        <mxCell id="JdBObX5c28iziQ9NhJDq-167" value="" style="shape=tableRow;horizontal=0;startSize=0;swimlaneHead=0;swimlaneBody=0;fillColor=none;collapsible=0;dropTarget=0;points=[[0,0.5],[1,0.5]];portConstraint=eastwest;top=0;left=0;right=0;bottom=1;fontSize=10;" vertex="1" parent="JdBObX5c28iziQ9NhJDq-166">
          <mxGeometry y="30" width="244" height="30" as="geometry" />
        </mxCell>
        <mxCell id="JdBObX5c28iziQ9NhJDq-168" value="PK" style="shape=partialRectangle;connectable=0;fillColor=none;top=0;left=0;bottom=0;right=0;fontStyle=1;overflow=hidden;fontSize=10;" vertex="1" parent="JdBObX5c28iziQ9NhJDq-167">
          <mxGeometry width="40" height="30" as="geometry">
            <mxRectangle width="40" height="30" as="alternateBounds" />
          </mxGeometry>
        </mxCell>
        <mxCell id="JdBObX5c28iziQ9NhJDq-169" value="RefNo" style="shape=partialRectangle;connectable=0;fillColor=none;top=0;left=0;bottom=0;right=0;align=left;spacingLeft=6;fontStyle=5;overflow=hidden;fontSize=10;" vertex="1" parent="JdBObX5c28iziQ9NhJDq-167">
          <mxGeometry x="40" width="204" height="30" as="geometry">
            <mxRectangle width="204" height="30" as="alternateBounds" />
          </mxGeometry>
        </mxCell>
        <mxCell id="JdBObX5c28iziQ9NhJDq-170" value="" style="shape=tableRow;horizontal=0;startSize=0;swimlaneHead=0;swimlaneBody=0;fillColor=none;collapsible=0;dropTarget=0;points=[[0,0.5],[1,0.5]];portConstraint=eastwest;top=0;left=0;right=0;bottom=0;fontSize=10;" vertex="1" parent="JdBObX5c28iziQ9NhJDq-166">
          <mxGeometry y="60" width="244" height="30" as="geometry" />
        </mxCell>
        <mxCell id="JdBObX5c28iziQ9NhJDq-171" value="FK" style="shape=partialRectangle;connectable=0;fillColor=none;top=0;left=0;bottom=0;right=0;editable=1;overflow=hidden;fontSize=10;fontStyle=1" vertex="1" parent="JdBObX5c28iziQ9NhJDq-170">
          <mxGeometry width="40" height="30" as="geometry">
            <mxRectangle width="40" height="30" as="alternateBounds" />
          </mxGeometry>
        </mxCell>
        <mxCell id="JdBObX5c28iziQ9NhJDq-172" value="Cust_Purchase_Id" style="shape=partialRectangle;connectable=0;fillColor=none;top=0;left=0;bottom=0;right=0;align=left;spacingLeft=6;overflow=hidden;fontSize=10;fontStyle=1" vertex="1" parent="JdBObX5c28iziQ9NhJDq-170">
          <mxGeometry x="40" width="204" height="30" as="geometry">
            <mxRectangle width="204" height="30" as="alternateBounds" />
          </mxGeometry>
        </mxCell>
        <mxCell id="JdBObX5c28iziQ9NhJDq-173" value="" style="shape=tableRow;horizontal=0;startSize=0;swimlaneHead=0;swimlaneBody=0;fillColor=none;collapsible=0;dropTarget=0;points=[[0,0.5],[1,0.5]];portConstraint=eastwest;top=0;left=0;right=0;bottom=0;fontSize=10;" vertex="1" parent="JdBObX5c28iziQ9NhJDq-166">
          <mxGeometry y="90" width="244" height="30" as="geometry" />
        </mxCell>
        <mxCell id="JdBObX5c28iziQ9NhJDq-174" value="" style="shape=partialRectangle;connectable=0;fillColor=none;top=0;left=0;bottom=0;right=0;editable=1;overflow=hidden;fontSize=10;" vertex="1" parent="JdBObX5c28iziQ9NhJDq-173">
          <mxGeometry width="40" height="30" as="geometry">
            <mxRectangle width="40" height="30" as="alternateBounds" />
          </mxGeometry>
        </mxCell>
        <mxCell id="JdBObX5c28iziQ9NhJDq-175" value="ticket_type_name" style="shape=partialRectangle;connectable=0;fillColor=none;top=0;left=0;bottom=0;right=0;align=left;spacingLeft=6;overflow=hidden;fontSize=10;fontStyle=1" vertex="1" parent="JdBObX5c28iziQ9NhJDq-173">
          <mxGeometry x="40" width="204" height="30" as="geometry">
            <mxRectangle width="204" height="30" as="alternateBounds" />
          </mxGeometry>
        </mxCell>
        <mxCell id="JdBObX5c28iziQ9NhJDq-176" value="" style="shape=tableRow;horizontal=0;startSize=0;swimlaneHead=0;swimlaneBody=0;fillColor=none;collapsible=0;dropTarget=0;points=[[0,0.5],[1,0.5]];portConstraint=eastwest;top=0;left=0;right=0;bottom=0;fontSize=10;" vertex="1" parent="JdBObX5c28iziQ9NhJDq-166">
          <mxGeometry y="120" width="244" height="30" as="geometry" />
        </mxCell>
        <mxCell id="JdBObX5c28iziQ9NhJDq-177" value="" style="shape=partialRectangle;connectable=0;fillColor=none;top=0;left=0;bottom=0;right=0;editable=1;overflow=hidden;fontSize=10;" vertex="1" parent="JdBObX5c28iziQ9NhJDq-176">
          <mxGeometry width="40" height="30" as="geometry">
            <mxRectangle width="40" height="30" as="alternateBounds" />
          </mxGeometry>
        </mxCell>
        <mxCell id="JdBObX5c28iziQ9NhJDq-178" value="entrance_date" style="shape=partialRectangle;connectable=0;fillColor=none;top=0;left=0;bottom=0;right=0;align=left;spacingLeft=6;overflow=hidden;fontSize=10;fontStyle=1" vertex="1" parent="JdBObX5c28iziQ9NhJDq-176">
          <mxGeometry x="40" width="204" height="30" as="geometry">
            <mxRectangle width="204" height="30" as="alternateBounds" />
          </mxGeometry>
        </mxCell>
        <mxCell id="JdBObX5c28iziQ9NhJDq-179" value="" style="shape=tableRow;horizontal=0;startSize=0;swimlaneHead=0;swimlaneBody=0;fillColor=none;collapsible=0;dropTarget=0;points=[[0,0.5],[1,0.5]];portConstraint=eastwest;top=0;left=0;right=0;bottom=0;fontSize=10;" vertex="1" parent="JdBObX5c28iziQ9NhJDq-166">
          <mxGeometry y="150" width="244" height="30" as="geometry" />
        </mxCell>
        <mxCell id="JdBObX5c28iziQ9NhJDq-180" value="" style="shape=partialRectangle;connectable=0;fillColor=none;top=0;left=0;bottom=0;right=0;editable=1;overflow=hidden;fontSize=10;" vertex="1" parent="JdBObX5c28iziQ9NhJDq-179">
          <mxGeometry width="40" height="30" as="geometry">
            <mxRectangle width="40" height="30" as="alternateBounds" />
          </mxGeometry>
        </mxCell>
        <mxCell id="JdBObX5c28iziQ9NhJDq-181" value="Quantity" style="shape=partialRectangle;connectable=0;fillColor=none;top=0;left=0;bottom=0;right=0;align=left;spacingLeft=6;overflow=hidden;fontSize=10;fontStyle=1" vertex="1" parent="JdBObX5c28iziQ9NhJDq-179">
          <mxGeometry x="40" width="204" height="30" as="geometry">
            <mxRectangle width="204" height="30" as="alternateBounds" />
          </mxGeometry>
        </mxCell>
        <mxCell id="JdBObX5c28iziQ9NhJDq-187" value="" style="edgeStyle=entityRelationEdgeStyle;fontSize=12;html=1;endArrow=ERzeroToOne;startArrow=ERmandOne;rounded=0;entryX=0;entryY=0.5;entryDx=0;entryDy=0;exitX=1;exitY=0.5;exitDx=0;exitDy=0;" edge="1" parent="1" source="JdBObX5c28iziQ9NhJDq-116" target="JdBObX5c28iziQ9NhJDq-151">
          <mxGeometry width="100" height="100" relative="1" as="geometry">
            <mxPoint x="350" y="940" as="sourcePoint" />
            <mxPoint x="450" y="840" as="targetPoint" />
          </mxGeometry>
        </mxCell>
        <mxCell id="JdBObX5c28iziQ9NhJDq-192" value="made/made by" style="edgeLabel;html=1;align=center;verticalAlign=middle;resizable=0;points=[];fontSize=10;" vertex="1" connectable="0" parent="JdBObX5c28iziQ9NhJDq-187">
          <mxGeometry x="-0.1011" y="5" relative="1" as="geometry">
            <mxPoint as="offset" />
          </mxGeometry>
        </mxCell>
        <mxCell id="JdBObX5c28iziQ9NhJDq-188" value="" style="endArrow=ERoneToMany;html=1;rounded=0;fontSize=10;endFill=0;startArrow=ERmandOne;startFill=0;" edge="1" parent="1">
          <mxGeometry relative="1" as="geometry">
            <mxPoint x="560" y="940" as="sourcePoint" />
            <mxPoint x="560" y="1030" as="targetPoint" />
          </mxGeometry>
        </mxCell>
        <mxCell id="JdBObX5c28iziQ9NhJDq-193" value="has/has" style="edgeLabel;html=1;align=center;verticalAlign=middle;resizable=0;points=[];fontSize=10;" vertex="1" connectable="0" parent="JdBObX5c28iziQ9NhJDq-188">
          <mxGeometry x="-0.1701" y="-1" relative="1" as="geometry">
            <mxPoint as="offset" />
          </mxGeometry>
        </mxCell>
        <mxCell id="JdBObX5c28iziQ9NhJDq-190" value="" style="edgeStyle=entityRelationEdgeStyle;fontSize=12;html=1;endArrow=ERmandOne;endFill=0;rounded=0;entryX=-0.004;entryY=0.133;entryDx=0;entryDy=0;entryPerimeter=0;startArrow=ERzeroToMany;startFill=0;" edge="1" parent="1" target="JdBObX5c28iziQ9NhJDq-132">
          <mxGeometry width="100" height="100" relative="1" as="geometry">
            <mxPoint x="684" y="1140" as="sourcePoint" />
            <mxPoint x="754" y="1040" as="targetPoint" />
          </mxGeometry>
        </mxCell>
        <mxCell id="JdBObX5c28iziQ9NhJDq-191" value="has/has" style="edgeLabel;html=1;align=center;verticalAlign=middle;resizable=0;points=[];fontSize=10;" vertex="1" connectable="0" parent="JdBObX5c28iziQ9NhJDq-190">
          <mxGeometry x="-0.0263" y="2" relative="1" as="geometry">
            <mxPoint as="offset" />
          </mxGeometry>
        </mxCell>
      </root>
    </mxGraphModel>
  </diagram>
</mxfile>
